<?xml version="1.0" standalone="no"?>
<!DOCTYPE svg PUBLIC "-//W3C//DTD SVG 20010904//EN"
 "http://www.w3.org/TR/2001/REC-SVG-20010904/DTD/svg10.dtd">
<svg version="1.0" xmlns="http://www.w3.org/2000/svg"
 width="300.000000pt" height="300.000000pt" viewBox="0 0 300.000000 300.000000"
 preserveAspectRatio="xMidYMid meet">
<metadata>
Created by potrace 1.10, written by Peter Selinger 2001-2011
</metadata>
<g transform="translate(0.000000,300.000000) scale(0.100000,-0.100000)"
fill="#000000" stroke="none">
<path d="M1422 2123 c-7 -3 -19 -18 -28 -34 -11 -23 -12 -34 -3 -50 6 -12 7
-25 2 -30 -8 -8 -96 5 -194 27 -19 4 -34 -1 -54 -18 -34 -29 -36 -70 -6 -102
11 -12 21 -26 21 -30 0 -10 -128 -66 -150 -66 -32 0 -80 -49 -80 -80 0 -27 39
-71 72 -82 19 -7 -1 -39 -72 -121 -33 -38 -60 -74 -60 -82 0 -7 12 -28 27 -45
27 -32 48 -36 96 -15 13 6 17 2 17 -16 -1 -22 -17 -107 -36 -181 -5 -22 0 -33
25 -58 36 -36 63 -34 97 7 12 14 26 23 31 20 9 -6 48 -102 69 -171 5 -16 22
-38 37 -50 26 -19 30 -19 55 -6 14 9 33 29 42 45 8 17 16 32 17 34 4 7 46 -25
116 -88 37 -34 76 -61 86 -61 34 0 71 39 71 74 0 17 -5 37 -11 43 -28 28 37
25 162 -8 55 -14 73 -11 97 14 29 31 28 68 -3 97 -33 31 -23 41 82 74 89 29
133 60 133 95 0 28 -38 70 -71 78 l-29 8 80 94 c44 51 80 99 80 106 0 23 -51
75 -74 75 -12 0 -32 -7 -44 -16 -20 -14 -22 -14 -22 3 0 10 7 52 15 93 30 146
30 136 2 164 -33 33 -57 33 -95 1 -17 -14 -32 -25 -35 -25 -2 0 -19 39 -37 88
-45 123 -49 129 -81 143 -36 14 -70 -5 -89 -50 -15 -37 -18 -36 -121 49 -71
57 -99 68 -137 53z m69 -47 c6 -13 22 -29 35 -35 13 -6 44 -29 67 -51 24 -22
47 -37 50 -34 3 3 14 1 24 -5 17 -10 17 -10 0 -11 -18 0 -18 -2 3 -32 103
-155 107 -341 10 -451 -22 -25 -50 -49 -61 -52 -11 -4 -18 -9 -15 -12 11 -12
99 51 135 97 54 69 76 136 76 240 0 97 -9 140 -30 140 -7 0 -17 5 -21 12 -5 8
-2 9 9 5 10 -4 17 -1 17 6 0 21 -39 77 -54 77 -20 0 -30 38 -16 55 24 29 80 5
67 -29 -3 -7 5 -35 18 -62 14 -27 25 -56 25 -65 0 -8 7 -24 15 -35 15 -20 20
-38 8 -31 -5 3 -8 -34 -8 -82 0 -101 -21 -167 -75 -238 -47 -63 -108 -104
-177 -120 l-58 -13 65 4 c143 8 271 115 326 273 18 52 18 53 -1 67 -11 8 -16
18 -11 23 5 4 11 2 13 -4 3 -7 9 -13 14 -13 13 0 11 84 -2 97 -6 6 -8 21 -4
33 5 16 13 20 32 18 36 -4 52 -32 31 -55 -13 -16 -22 -59 -31 -153 -1 -14 -5
-27 -8 -30 -4 -3 -19 -30 -34 -59 -89 -178 -288 -272 -425 -201 -29 15 -40 18
-32 8 7 -9 36 -26 65 -39 41 -19 69 -24 133 -23 71 0 90 5 155 36 106 50 209
154 209 211 0 31 27 49 52 36 27 -14 22 -39 -14 -74 -18 -17 -51 -54 -73 -81
-43 -55 -92 -90 -181 -131 -51 -24 -72 -28 -149 -27 -109 0 -164 23 -225 92
-44 49 -51 48 -19 -4 31 -52 105 -111 168 -136 66 -26 240 -33 263 -11 6 7 20
13 30 13 26 0 88 32 88 46 0 20 28 36 50 29 12 -4 20 -15 20 -29 0 -26 -24
-51 -39 -41 -6 3 -27 -3 -48 -14 -21 -10 -58 -24 -82 -31 -24 -6 -52 -21 -62
-33 -10 -12 -18 -17 -19 -12 0 6 4 15 9 20 6 6 -22 10 -77 11 -112 1 -182 27
-256 95 -60 55 -96 120 -96 176 -1 31 -3 35 -11 20 -14 -24 4 -113 34 -174 27
-53 114 -141 166 -168 56 -28 110 -45 116 -34 10 15 35 10 29 -6 -5 -12 2 -15
34 -15 23 0 52 5 66 11 20 9 29 9 41 -1 21 -17 19 -47 -4 -60 -20 -10 -51 -4
-51 10 0 8 -116 23 -174 23 -26 -1 -35 2 -28 9 7 7 -5 18 -40 36 -66 33 -149
115 -184 182 -24 47 -28 67 -29 135 0 56 5 90 17 115 l18 35 -24 -29 c-50 -61
-61 -191 -25 -298 33 -99 99 -184 139 -181 20 2 22 1 6 -5 -16 -7 -14 -11 17
-35 20 -15 49 -27 65 -27 32 0 46 -20 37 -51 -10 -29 -53 -25 -65 6 -5 14 -14
25 -19 25 -6 0 -34 19 -63 43 -29 24 -62 49 -73 55 -11 6 -15 12 -8 12 6 0 -4
26 -23 58 -50 82 -67 148 -62 245 4 100 34 166 97 215 46 35 44 43 -4 14 -52
-32 -96 -85 -129 -152 -29 -61 -31 -72 -31 -178 0 -117 4 -129 49 -145 6 -2 8
-8 4 -12 -4 -4 -14 -2 -22 4 -13 11 -12 6 1 -29 10 -26 26 -45 41 -51 18 -7
23 -15 20 -37 -3 -23 -8 -27 -33 -27 -26 0 -30 4 -33 30 -2 17 -12 49 -23 72
-10 24 -19 49 -19 57 0 7 -9 25 -21 40 -11 14 -16 26 -11 26 5 0 11 44 14 98
3 83 8 107 35 164 50 106 124 167 226 187 l42 9 -47 1 c-115 3 -247 -90 -312
-219 -39 -79 -66 -204 -48 -222 28 -28 0 -75 -38 -63 -21 7 -26 33 -11 63 13
27 38 172 29 172 -4 0 -8 10 -7 23 0 19 2 20 11 6 9 -13 16 -6 41 43 58 117
179 209 292 224 37 4 66 1 110 -14 54 -19 57 -19 35 -2 -52 39 -155 56 -236
40 -113 -23 -244 -107 -244 -156 0 -13 -4 -24 -10 -24 -5 0 -10 6 -10 12 0 7
-11 -4 -25 -24 -14 -20 -25 -48 -25 -62 0 -30 -27 -48 -52 -35 -25 13 -23 56
2 64 11 3 33 25 49 48 122 177 347 260 514 188 45 -20 117 -83 117 -103 0 -6
3 -9 6 -6 10 10 -22 61 -63 100 -64 62 -142 92 -252 96 -101 4 -171 -9 -171
-33 0 -8 -5 -17 -11 -21 -8 -4 -9 1 -4 15 l7 22 -37 -18 c-20 -11 -42 -30 -48
-44 -26 -51 -92 -25 -68 27 9 21 16 25 36 20 13 -3 26 -2 29 3 3 4 33 18 65
31 33 12 66 28 72 36 14 17 33 19 23 3 -5 -8 8 -9 42 -5 115 16 263 -34 339
-115 49 -52 63 -80 75 -149 l8 -45 1 61 c3 140 -124 283 -297 335 -39 11 -44
11 -56 -7 -8 -11 -18 -15 -23 -10 -4 5 -2 11 5 13 6 3 12 9 12 14 0 12 -77 12
-85 -1 -10 -16 -52 -11 -59 6 -11 28 3 54 29 54 13 0 26 -4 29 -9 3 -4 34 -11
69 -14 269 -25 479 -286 384 -477 -23 -44 -15 -50 11 -8 73 118 46 311 -61
434 -29 33 -41 40 -62 37 -15 -3 -25 -1 -25 6 0 6 8 11 17 11 11 0 4 9 -20 26
-25 16 -45 23 -58 19 -38 -12 -65 35 -37 63 19 19 48 14 59 -12z"/>
<path d="M1475 1618 c-43 -15 -64 -36 -77 -79 -28 -95 73 -180 161 -135 91 47
85 172 -9 210 -22 9 -41 16 -43 15 -1 0 -15 -5 -32 -11z m83 -58 c48 -45 5
-140 -56 -125 -40 9 -65 39 -65 76 0 61 75 91 121 49z"/>
<path d="M2860 135 c-20 -21 -22 -28 -12 -49 18 -40 45 -49 76 -25 31 24 33
52 6 79 -26 26 -42 25 -70 -5z m53 -47 c-14 -15 -16 -15 -31 0 -15 15 -15 19
-2 33 14 14 16 14 31 0 15 -14 15 -18 2 -33z"/>
</g>
</svg>
