<?xml version="1.0" standalone="no"?>
<!DOCTYPE svg PUBLIC "-//W3C//DTD SVG 20010904//EN"
 "http://www.w3.org/TR/2001/REC-SVG-20010904/DTD/svg10.dtd">
<svg version="1.0" xmlns="http://www.w3.org/2000/svg"
 width="300.000000pt" height="300.000000pt" viewBox="0 0 300.000000 300.000000"
 preserveAspectRatio="xMidYMid meet">
<metadata>
Created by potrace 1.10, written by Peter Selinger 2001-2011
</metadata>
<g transform="translate(0.000000,300.000000) scale(0.100000,-0.100000)"
fill="#ffffff" stroke="none">
<path d="M1600 2397 l0 -74 -123 5 c-103 4 -136 1 -207 -17 -275 -69 -484
-270 -549 -527 l-17 -69 -75 -3 c-41 -2 -78 -7 -82 -11 -8 -8 222 -327 247
-343 6 -4 16 -2 23 4 29 24 253 319 253 333 0 12 -15 15 -75 15 -70 0 -75 1
-75 21 0 12 16 56 36 98 67 138 209 248 362 280 58 12 166 14 225 5 l37 -7 0
-82 c0 -58 4 -84 13 -88 14 -5 297 217 297 233 0 13 -261 294 -277 298 -10 3
-13 -16 -13 -71z m50 17 c0 -26 -35 -7 -38 22 -4 29 -4 29 17 10 12 -11 21
-25 21 -32z"/>
<path d="M2153 1593 c-142 -182 -223 -294 -223 -307 0 -13 14 -16 75 -16 72 0
75 -1 75 -24 0 -42 -67 -160 -124 -217 -62 -62 -141 -109 -230 -134 -62 -18
-192 -23 -263 -11 l-43 8 0 83 c0 46 -4 86 -9 89 -10 6 -19 -1 -181 -133 -63
-52 -116 -100 -118 -107 -3 -12 199 -234 220 -242 4 -2 5 4 2 13 -6 13 -1 16
22 13 25 -3 30 -8 35 -43 5 -32 6 -25 8 32 l1 73 118 -6 c239 -12 422 56 582
217 87 87 150 195 179 311 l19 73 73 3 c41 2 78 7 83 12 11 11 -241 350 -260
350 -7 0 -25 -17 -41 -37z"/>
<path d="M2885 110 c-11 -17 5 -32 21 -19 7 6 11 15 8 20 -7 12 -21 11 -29 -1z"/>
</g>
</svg>
