<svg xmlns="http://www.w3.org/2000/svg" viewBox="0 0 300 300">
  <path fill="white"
  d="M160 60.3v7.4l-12.3-.5c-10.3-.4-13.6-.1-20.7 1.7-27.5 6.9-48.4 27-54.9 52.7l-1.7 6.9-7.5.3c-4.1.2-7.8.7-8.2 1.1-.8.8 22.2 32.7 24.7 34.3.6.4 1.6.2 2.3-.4 2.9-2.4 25.3-31.9 25.3-33.3 0-1.2-1.5-1.5-7.5-1.5-7 0-7.5-.1-7.5-2.1 0-1.2 1.6-5.6 3.6-9.8 6.7-13.8 20.9-24.8 36.2-28 5.8-1.2 16.6-1.4 22.5-.5l3.7.7v8.2c0 5.8.4 8.4 1.3 8.8 1.4.5 29.7-21.7 29.7-23.3 0-1.3-26.1-29.4-27.7-29.8-1-.3-1.3 1.6-1.3 7.1zm5-1.7c0 2.6-3.5.7-3.8-2.2-.4-2.9-.4-2.9 1.7-1 1.2 1.1 2.1 2.5 2.1 3.2zm50.3 82.1c-14.2 18.2-22.3 29.4-22.3 30.7 0 1.3 1.4 1.6 7.5 1.6 7.2 0 7.5.1 7.5 2.4 0 4.2-6.7 16-12.4 21.7-6.2 6.2-14.1 10.9-23 13.4-6.2 1.8-19.2 2.3-26.3 1.1l-4.3-.8v-8.3c0-4.6-.4-8.6-.9-8.9-1-.6-1.9.1-18.1 13.3-6.3 5.2-11.6 10-11.8 10.7-.3 1.2 19.9 23.4 22 24.2.4.2.5-.4.2-1.3-.6-1.3-.1-1.6 2.2-1.3 2.5.3 3 .8 3.5 4.3.5 3.2.6 2.5.8-3.2l.1-7.3 11.8.6c23.9 1.2 42.2-5.6 58.2-21.7 8.7-8.7 15-19.5 17.9-31.1l1.9-7.3 7.3-.3c4.1-.2 7.8-.7 8.3-1.2 1.1-1.1-24.1-35-26-35-.7 0-2.5 1.7-4.1 3.7zM288.5 289c-1.1 1.7.5 3.2 2.1 1.9.7-.6 1.1-1.5.8-2-.7-1.2-2.1-1.1-2.9.1z"/>
</svg>

